<?xml version="1.0" encoding="UTF-8"?>
<svg id="Layer_1" data-name="Layer 1" xmlns="http://www.w3.org/2000/svg" viewBox="0 0 493.37 211.18">
  <defs>
    <style>
      .cls-1 {
        isolation: isolate;
      }

      .cls-2 {
        fill: #fbf9ed;
      }
    </style>
  </defs>
  <g id="Group_76-2" data-name="Group 76-2">
    <path id="Path_118-2" data-name="Path 118-2" class="cls-2" d="M112.92,50.82c6.47,0,11.72,5.25,11.72,11.72s-5.25,11.72-11.72,11.72-11.72-5.25-11.72-11.72,5.25-11.72,11.72-11.72h0"/>
    <path id="Path_119-2" data-name="Path 119-2" class="cls-2" d="M42.04,120.95c12.57-4.99,25.34-9.77,38.74-12.07,9.71-1.66,16.1-.13,24.48,4.74,1.61,1.03,3.36,1.82,5.19,2.37.24.02.48.02.72-.01,1.93-.47,4.31-2.23,6.15-3.45,4.37-2.87,9.12-6.8,14.73-6.94,1.95.09,3.87.49,5.69,1.2,3.95,1.53,7.66,3.61,11.04,6.16,4.91,3.46,9.1,7.83,12.35,12.87l-1.84,1.41c-2.02-2.25-4.23-4.32-6.6-6.2-4.03-3.27-8.41-6.07-13.07-8.35-2.14-1.1-4.45-1.87-6.82-2.26-2.24-.25-4.23.71-6.25,1.77-2.19,1.19-4.35,2.7-6.59,4.22-3.18,2.01-6.8,5.07-10.9,3.99-2.13-.68-4.15-1.63-6.03-2.84-4.44-2.62-8.95-4.79-14.06-5.09-7.73-.28-15.63,1.74-23.14,3.63-7.76,2.01-15.38,4.5-22.99,7.04l-1.11.37-.78-2.12,1.08-.44h0Z"/>
    <path id="Path_120-2" data-name="Path 120-2" class="cls-2" d="M33.97,146.81c44.97-1.45,90-1.78,134.96.12v2.26c-22.68,1.08-45.38,1.26-68.08,1.23-22.3-.05-44.6-.31-66.89-1.17l-1.22-.05v-2.35l1.22-.05h.01Z"/>
    <g id="doloni-2" class="cls-1">
      <g class="cls-1">
        <path class="cls-2" d="M294.61,147.94c.36.65,1.03,1.43,2,2.34l-3.02,2.92c-2.79-1.69-4.19-4.45-4.19-8.29-1.69,2.67-3.88,4.71-6.58,6.14-2.7,1.43-5.77,2.14-9.21,2.14-3.97,0-7.44-.93-10.43-2.78s-5.31-4.47-6.97-7.85-2.49-7.31-2.49-11.8v-3.12c0-4.49.83-8.42,2.49-11.8,1.66-3.38,3.98-6,6.97-7.85s6.47-2.78,10.43-2.78c3.51,0,6.63.7,9.36,2.1s4.88,3.4,6.44,6v-23.5c0-1.04-.16-1.87-.49-2.49s-1.01-1.38-2.05-2.29l3.22-2.83c1.49.91,2.54,1.95,3.12,3.12.58,1.17.88,2.8.88,4.88v55.29c0,.97.18,1.79.54,2.44h-.02ZM289.4,120.25c-1.24-3.57-3.06-6.32-5.46-8.24-2.41-1.92-5.65-2.88-9.75-2.88-4.75,0-8.57,1.69-11.46,5.07s-4.34,7.87-4.34,13.46v3.12c0,5.59,1.45,10.06,4.34,13.41s6.71,5.02,11.46,5.02c4.1,0,7.34-.94,9.75-2.83,2.4-1.88,4.22-4.65,5.46-8.29v-17.84Z"/>
      </g>
      <g class="cls-1">
        <path class="cls-2" d="M313.87,148.53c-3.32-3.12-4.97-7.44-4.97-12.97v-12.77c0-5.52,1.66-9.83,4.97-12.92,3.32-3.09,7.96-4.63,13.94-4.63s10.55,1.54,13.89,4.63c3.35,3.09,5.02,7.39,5.02,12.92v12.77c0,5.53-1.67,9.85-5.02,12.97-3.35,3.12-7.98,4.68-13.89,4.68s-10.63-1.56-13.94-4.68ZM338.25,145.65c2.47-2.37,3.71-5.74,3.71-10.09v-12.77c0-4.35-1.24-7.72-3.71-10.09-2.47-2.37-5.95-3.56-10.43-3.56s-8.06,1.19-10.53,3.56c-2.47,2.37-3.71,5.74-3.71,10.09v12.77c0,4.36,1.23,7.72,3.71,10.09,2.47,2.37,5.98,3.56,10.53,3.56s7.96-1.19,10.43-3.56Z"/>
      </g>
      <g class="cls-1">
        <path class="cls-2" d="M362.38,149.99c-.62-1.17-.93-2.79-.93-4.88v-55.38c0-.98-.18-1.79-.54-2.44s-1.02-1.43-2-2.34l3.02-2.83c1.56.91,2.65,1.95,3.27,3.12.62,1.17.93,2.8.93,4.88v55.38c0,.97.18,1.79.54,2.44s1.02,1.43,2,2.34l-3.02,2.92c-1.56-.97-2.65-2.05-3.27-3.22h0Z"/>
      </g>
      <g class="cls-1">
        <path class="cls-2" d="M385.92,148.53c-3.32-3.12-4.97-7.44-4.97-12.97v-12.77c0-5.52,1.66-9.83,4.97-12.92,3.32-3.09,7.96-4.63,13.94-4.63s10.55,1.54,13.89,4.63c3.35,3.09,5.02,7.39,5.02,12.92v12.77c0,5.53-1.67,9.85-5.02,12.97-3.35,3.12-7.98,4.68-13.89,4.68s-10.63-1.56-13.94-4.68ZM410.3,145.65c2.47-2.37,3.71-5.74,3.71-10.09v-12.77c0-4.35-1.24-7.72-3.71-10.09-2.47-2.37-5.95-3.56-10.43-3.56s-8.06,1.19-10.53,3.56c-2.47,2.37-3.71,5.74-3.71,10.09v12.77c0,4.36,1.23,7.72,3.71,10.09,2.47,2.37,5.98,3.56,10.53,3.56s7.96-1.19,10.43-3.56Z"/>
        <path class="cls-2" d="M465.49,109.38c2.54,2.76,3.8,6.55,3.8,11.36v31.4h-4.68v-30.42c0-3.96-.93-7.05-2.78-9.26-1.85-2.21-4.47-3.32-7.85-3.32-3.96,0-7.43,1.54-10.38,4.63-2.96,3.09-4.92,7.23-5.9,12.43v25.94h-4.68v-39.29c0-.97-.18-1.79-.54-2.44s-1.02-1.43-2-2.34l3.02-2.83c1.56.91,2.65,1.95,3.27,3.12.62,1.17.93,2.8.93,4.88v4.19c1.62-3.9,3.93-6.91,6.92-9.02,2.99-2.11,6.5-3.17,10.53-3.17,4.35,0,7.8,1.38,10.33,4.14h0Z"/>
      </g>
      <g class="cls-1">
        <path class="cls-2" d="M485.86,93.63c-.72-.71-1.07-1.59-1.07-2.63s.36-1.92,1.07-2.63,1.59-1.07,2.63-1.07,1.92.36,2.63,1.07c.71.72,1.07,1.59,1.07,2.63s-.36,1.92-1.07,2.63-1.59,1.07-2.63,1.07-1.92-.36-2.63-1.07ZM487.08,149.99c-.62-1.17-.93-2.79-.93-4.88v-38.81h4.68v39.2c0,.97.18,1.79.54,2.44s1.02,1.43,2,2.34l-3.02,2.92c-1.56-.97-2.65-2.05-3.27-3.22h0Z"/>
      </g>
    </g>
    <path id="Rectangle_44-2" data-name="Rectangle 44-2" class="cls-2" d="M100.84,0c55.66.06,100.77,45.17,100.83,100.83v9.5c0,55.69-45.13,100.84-100.82,100.85C45.16,211.18.01,166.05,0,110.36v-9.53C.06,45.17,45.17.06,100.83,0h.01ZM100.84,206.78c53.24-.06,96.39-43.21,96.45-96.45v-9.5c0-53.27-43.17-96.45-96.44-96.46C47.58,4.37,4.4,47.54,4.39,100.81v9.52c.06,53.24,43.21,96.39,96.45,96.45Z"/>
  </g>
</svg>