<?xml version="1.0" encoding="UTF-8"?>
<svg id="Layer_1" data-name="Layer 1" xmlns="http://www.w3.org/2000/svg" viewBox="0 0 201.67 211.18">
  <defs>
    <style>
      .cls-1 {
        fill: #5b3424;
      }
    </style>
  </defs>
  <path id="Path_118" data-name="Path 118" class="cls-1" d="M112.92,50.82c6.47,0,11.72,5.25,11.72,11.72s-5.25,11.72-11.72,11.72c-6.47,0-11.72-5.25-11.72-11.72,0-6.47,5.25-11.72,11.72-11.72h0"/>
  <path id="Path_119" data-name="Path 119" class="cls-1" d="M42.04,120.95c12.57-4.99,25.34-9.77,38.74-12.07,9.71-1.66,16.1-.13,24.48,4.74,1.61,1.03,3.36,1.82,5.19,2.37.24.02.48.02.72-.01,1.93-.47,4.31-2.23,6.15-3.45,4.37-2.87,9.12-6.8,14.73-6.94,1.95.09,3.87.49,5.69,1.2,3.95,1.53,7.66,3.61,11.04,6.16,4.91,3.46,9.1,7.83,12.35,12.87l-1.84,1.41c-2.02-2.25-4.23-4.32-6.6-6.2-4.03-3.27-8.41-6.07-13.07-8.35-2.14-1.1-4.45-1.87-6.82-2.26-2.24-.25-4.23.71-6.25,1.77-2.19,1.19-4.35,2.7-6.59,4.22-3.18,2.01-6.8,5.07-10.9,3.99-2.13-.68-4.15-1.63-6.03-2.84-4.44-2.62-8.95-4.79-14.06-5.09-7.73-.28-15.63,1.74-23.14,3.63-7.76,2.01-15.38,4.5-22.99,7.04l-1.11.37-.78-2.12,1.08-.44Z"/>
  <path id="Path_120" data-name="Path 120" class="cls-1" d="M33.97,146.81c44.97-1.45,90-1.78,134.96.12v2.26c-22.68,1.08-45.38,1.26-68.08,1.23-22.3-.05-44.6-.31-66.89-1.17l-1.22-.05v-2.35l1.22-.05Z"/>
  <path id="Rectangle_44" data-name="Rectangle 44" class="cls-1" d="M100.83,0c55.66.06,100.77,45.17,100.83,100.83v9.5c0,55.69-45.13,100.84-100.82,100.85C45.16,211.19,0,166.05,0,110.36c0,0,0-.02,0-.03v-9.5C.06,45.17,45.17.06,100.83,0ZM100.83,206.78c53.24-.06,96.39-43.21,96.45-96.45v-9.5c0-53.27-43.17-96.45-96.44-96.46-53.27,0-96.45,43.17-96.46,96.44,0,0,0,.01,0,.02v9.5c.06,53.24,43.21,96.39,96.45,96.45Z"/>
</svg>